{"glyphs":{":":{"x_min":0,"x_max":177,"ha":177,"o":"m 153 364 q 172 364 187 351 q 201 337 201 316 q 201 296 187 282 q 172 269 153 269 q 133 269 119 282 q 105 296 105 316 q 105 336 119 350 q 133 364 153 364 z m 86 84 q 105 84 120 70 q 134 57 134 36 q 134 17 120 2 q 106 -12 86 -12 q 66 -12 52 2 q 39 17 39 36 q 39 56 53 70 q 67 84 86 84 z"},"$":{"x_min":0,"x_max":490,"ha":490,"o":"m 374 528 l 394 588 l 419 588 l 401 528 q 458 517 482 488 q 507 459 507 427 q 507 408 496 395 q 485 382 468 382 q 451 382 440 393 q 430 404 430 421 q 430 442 455 454 q 467 459 467 464 q 467 474 450 487 q 434 499 394 507 l 335 312 q 413 236 428 200 q 443 164 443 134 q 443 68 390 22 q 338 -24 269 -24 q 254 -24 232 -23 l 194 -144 l 166 -144 l 204 -19 q 156 -11 121 25 q 85 61 85 101 q 85 126 100 142 q 114 157 131 157 q 147 157 158 144 q 169 131 169 113 q 169 94 146 75 q 134 66 134 61 q 134 46 155 28 q 177 9 210 0 l 289 254 q 207 331 207 399 q 207 462 256 496 q 306 529 357 529 q 363 529 374 528 z m 367 508 q 309 508 283 484 q 258 459 258 430 q 258 386 314 335 z m 239 -4 q 256 -6 267 -6 q 314 -6 348 26 q 381 58 381 102 q 381 164 311 232 z"},"?":{"x_min":0,"x_max":396,"ha":396,"o":"m 327 669 q 399 669 436 632 q 474 594 474 536 q 474 489 449 447 q 424 405 386 378 q 349 351 260 306 q 195 273 182 257 q 168 240 168 222 q 168 195 189 178 q 209 161 239 161 q 272 161 303 177 q 311 182 316 182 q 325 182 325 173 q 325 163 299 152 q 272 142 237 142 q 197 142 169 167 q 142 193 142 229 q 142 274 173 309 q 205 343 296 398 q 426 476 426 556 q 426 597 401 622 q 376 648 326 648 q 286 648 256 628 q 227 608 227 585 q 227 572 245 559 q 265 543 265 525 q 265 510 254 499 q 244 489 228 489 q 208 489 192 505 q 177 521 177 549 q 177 594 220 632 q 264 669 327 669 z m 206 74 q 223 74 236 62 q 249 50 249 31 q 249 14 236 1 q 224 -11 206 -11 q 188 -11 176 1 q 163 14 163 31 q 163 50 176 62 q 188 74 206 74 z"},"<":{"x_min":0,"x_max":667,"ha":667,"o":"m 654 17 l 131 239 l 131 278 l 654 499 l 654 452 l 188 259 l 654 64 z"},"'":{"x_min":0,"x_max":219,"ha":219,"o":"m 167 392 l 182 537 q 188 596 195 621 q 202 646 219 662 q 235 677 258 677 q 297 677 297 643 q 297 623 256 536 l 188 392 z"},"=":{"x_min":0,"x_max":667,"ha":667,"o":"m 130 395 l 654 395 l 654 352 l 130 352 z m 130 168 l 654 168 l 654 125 l 130 125 z"},"a":{"x_min":0,"x_max":458,"ha":458,"o":"m 467 409 q 454 379 412 247 l 369 111 q 355 74 355 47 q 355 31 372 31 q 383 31 405 47 q 426 62 447 87 q 460 103 466 103 q 474 103 474 95 q 474 82 421 36 q 368 -9 326 -9 q 298 -9 298 30 q 298 57 301 98 q 226 -4 143 -4 q 107 -4 90 22 q 73 48 73 81 q 73 175 167 297 q 261 419 345 419 q 367 419 380 404 q 393 389 396 358 q 405 381 424 417 q 439 415 454 412 q 464 410 467 409 z m 317 393 q 289 393 248 352 q 207 311 175 232 q 144 153 144 100 q 144 69 155 53 q 166 37 188 37 q 245 37 302 141 q 360 244 360 328 q 360 355 348 374 q 336 393 317 393 z"},"L":{"x_min":0,"x_max":656,"ha":656,"o":"m 602 -2 l 496 -5 l 167 0 l 33 -1 q 20 -1 20 7 q 20 12 25 15 q 30 17 55 21 q 80 25 103 43 q 126 62 137 83 q 148 105 182 225 q 216 344 232 417 q 249 490 249 528 q 249 572 220 592 q 191 613 159 616 q 128 619 128 627 q 128 637 143 637 q 148 637 158 636 q 168 635 274 635 l 371 635 l 447 636 q 468 636 468 627 q 468 620 446 617 q 405 611 386 598 q 367 584 358 565 q 349 545 318 429 q 288 312 267 219 q 246 126 246 95 q 246 16 363 16 q 442 16 486 31 q 530 45 559 73 q 588 101 648 174 q 656 183 660 183 q 668 183 668 173 q 668 165 644 100 q 620 35 602 -2 z"},"3":{"x_min":0,"x_max":490,"ha":490,"o":"m 329 284 q 396 284 422 250 q 448 216 448 176 q 448 104 388 46 q 328 -13 225 -13 q 145 -13 104 23 q 63 58 63 105 q 63 124 75 138 q 87 152 104 152 q 122 152 132 142 q 143 131 143 117 q 143 110 137 96 q 129 79 129 68 q 129 42 155 24 q 180 6 214 6 q 280 6 327 71 q 375 137 375 198 q 375 222 360 245 q 345 268 313 268 q 293 268 263 251 q 241 239 236 239 q 227 239 227 249 q 227 258 253 268 q 369 321 394 358 q 419 395 419 429 q 419 466 398 487 q 377 508 339 508 q 292 508 260 475 q 227 442 227 397 q 227 376 234 366 q 242 355 257 355 q 276 355 299 375 q 313 387 318 387 q 326 387 326 380 q 326 365 293 344 q 261 323 234 323 q 208 323 190 343 q 172 362 172 388 q 172 444 224 486 q 277 528 354 528 q 418 528 454 496 q 490 463 490 420 q 490 386 464 354 q 438 322 329 284 z"},";":{"x_min":0,"x_max":188,"ha":188,"o":"m 154 370 q 173 370 187 356 q 201 343 201 323 q 201 303 187 289 q 173 275 154 275 q 134 275 120 289 q 106 303 106 323 q 106 342 120 356 q 134 370 154 370 z m 101 -14 q 35 -7 35 40 q 35 61 49 75 q 63 89 86 89 q 116 89 135 63 q 153 37 153 6 q 153 -65 103 -113 q 53 -161 28 -161 q 17 -161 17 -152 q 17 -147 35 -137 q 104 -95 104 -39 q 104 -30 101 -14 z"},"J":{"x_min":0,"x_max":490,"ha":490,"o":"m 168 -8 q 104 -8 72 29 q 40 65 40 112 q 40 140 58 165 q 76 189 104 189 q 147 189 147 151 q 147 130 130 110 q 114 90 111 83 q 107 77 107 65 q 107 40 125 24 q 143 9 167 9 q 192 9 217 22 q 243 35 261 60 q 280 85 296 131 q 311 178 341 290 l 388 475 q 406 547 406 571 q 406 593 394 603 q 381 613 344 619 q 331 621 331 628 q 331 637 342 637 q 352 637 367 635 q 395 632 506 632 l 592 634 q 607 634 607 625 q 607 616 580 612 q 535 607 514 579 q 494 551 471 452 q 445 345 397 176 q 369 76 320 38 q 260 -8 168 -8 z"},"V":{"x_min":0,"x_max":604,"ha":604,"o":"m 247 144 q 260 154 339 239 q 418 325 485 407 q 551 490 565 516 q 579 542 579 565 q 579 611 522 614 q 503 615 503 623 q 503 634 520 634 q 527 634 563 633 l 639 635 q 736 635 753 633 q 771 632 771 624 q 771 617 746 612 q 695 603 663 577 q 631 551 449 333 q 383 254 250 113 q 184 44 159 14 q 135 -17 124 -17 q 117 -17 117 -10 q 117 -2 121 9 q 242 482 242 545 q 242 571 222 589 q 202 607 165 607 q 153 607 153 616 q 153 626 175 626 l 284 624 q 332 624 389 629 q 419 632 436 632 q 446 632 446 624 q 446 615 434 614 q 390 610 375 599 q 359 588 345 551 q 331 513 303 397 q 275 280 247 144 z"},"\"":{"x_min":0,"x_max":417,"ha":417,"o":"m 179 392 l 194 537 q 203 619 219 648 q 236 677 271 677 q 309 677 309 643 q 309 622 268 536 l 200 392 z m 358 392 l 373 535 q 378 594 385 620 q 392 646 409 662 q 427 677 452 677 q 488 677 488 643 q 488 613 450 535 l 381 392 z"},"7":{"x_min":0,"x_max":490,"ha":490,"o":"m 542 517 q 540 506 535 496 q 438 391 391 321 q 345 251 310 157 q 275 62 267 32 q 253 -19 221 -19 q 208 -19 197 -10 q 187 -1 187 13 q 187 60 238 150 q 290 241 468 452 l 323 451 l 240 452 q 195 452 165 418 q 152 405 146 405 q 138 405 138 413 q 138 416 179 490 l 207 544 q 217 565 222 565 q 230 565 230 556 q 230 532 241 524 q 252 517 282 517 l 297 517 l 412 517 z"},"S":{"x_min":0,"x_max":552,"ha":552,"o":"m 140 67 q 104 49 82 26 q 57 1 52 1 q 45 1 45 7 l 47 11 q 61 34 80 90 q 136 253 153 253 q 161 253 161 245 q 161 237 157 225 q 149 203 149 179 q 149 109 201 60 q 252 11 320 11 q 372 11 403 42 q 435 73 435 114 q 435 158 409 197 q 383 236 292 330 q 241 383 227 414 q 213 446 213 479 q 213 556 267 603 q 321 649 401 649 q 486 649 539 583 q 551 567 555 567 q 565 567 581 599 q 587 613 594 613 q 602 613 602 604 q 602 598 600 589 q 591 562 576 492 q 559 424 555 412 q 551 400 543 400 q 535 400 535 412 q 535 416 536 420 q 539 438 539 455 q 539 528 502 578 q 465 629 400 629 q 357 629 325 602 q 293 575 293 532 q 293 506 303 482 q 312 458 326 441 q 339 423 390 371 q 463 294 490 253 q 516 212 516 169 q 516 99 464 45 q 412 -9 325 -9 q 214 -9 140 67 z"},"}":{"x_min":0,"x_max":479,"ha":479,"o":"m 140 634 l 140 651 q 218 642 271 586 q 323 531 323 461 q 323 428 313 385 q 301 334 301 311 q 301 273 331 243 q 361 212 412 206 l 412 186 q 361 180 331 149 q 301 118 301 81 q 301 58 313 6 q 323 -37 323 -70 q 323 -139 270 -195 q 217 -250 140 -259 l 140 -242 q 250 -215 250 -126 q 250 -101 238 -50 q 228 -5 228 26 q 228 77 265 124 q 303 171 372 195 q 305 219 266 266 q 228 313 228 365 q 228 397 238 441 q 250 493 250 518 q 250 606 140 634 z"},"Z":{"x_min":0,"x_max":625,"ha":625,"o":"m 574 2 l 448 3 l 326 2 l 209 3 q 146 3 112 -1 q 92 -4 79 -4 q 71 -4 71 2 q 74 11 99 43 q 124 75 241 211 l 446 452 q 534 556 567 591 q 573 598 573 603 q 573 606 566 606 l 507 607 l 388 609 q 350 609 328 600 q 306 591 245 545 q 184 500 157 467 q 150 459 146 459 q 135 459 135 467 q 135 472 162 521 l 223 634 q 290 630 523 628 l 685 629 q 693 629 693 624 q 693 619 690 613 q 686 607 565 462 l 354 210 l 249 85 q 203 33 203 29 q 203 24 220 22 q 236 21 318 21 q 438 21 475 36 q 511 50 555 98 q 600 146 623 195 q 628 207 635 207 q 644 207 644 198 q 644 192 640 183 q 634 169 618 125 l 590 46 q 578 8 574 2 z"},"x":{"x_min":0,"x_max":490,"ha":490,"o":"m 236 64 q 229 60 206 41 q 154 -3 116 -3 q 86 -3 61 14 q 35 31 35 56 q 35 76 47 89 q 60 102 77 102 q 104 102 104 73 q 104 67 103 61 q 101 51 101 46 q 101 37 109 29 q 116 20 128 20 q 185 20 236 147 q 288 274 288 331 q 288 357 277 374 q 267 390 253 390 q 226 390 183 344 q 167 327 159 327 q 151 327 151 334 q 151 346 193 381 q 235 417 271 417 q 299 417 315 401 q 332 385 337 353 l 342 351 q 346 351 356 362 q 407 417 459 417 q 486 417 505 398 q 523 378 523 354 q 523 341 513 330 q 503 319 485 319 q 472 319 463 327 q 455 335 455 348 q 455 353 456 359 q 458 371 458 376 q 458 392 444 392 q 380 392 337 270 q 293 147 293 82 q 293 48 309 32 q 325 17 342 17 q 365 17 397 36 q 428 55 456 94 q 466 109 474 109 q 482 109 482 100 q 482 80 432 37 q 382 -6 328 -6 q 275 -6 250 40 q 240 59 236 64 z"},")":{"x_min":0,"x_max":312,"ha":312,"o":"m 298 346 q 298 272 285 198 q 273 125 246 57 q 218 -11 174 -78 q 130 -146 68 -202 q 6 -259 -3 -262 q -12 -266 -41 -266 q -55 -266 -55 -262 l -45 -253 q -10 -230 75 -140 q 161 -50 210 80 q 260 209 260 339 q 260 408 246 479 q 232 549 207 602 q 182 654 178 660 l 176 663 q 176 666 184 666 q 210 666 217 662 q 223 658 248 602 q 272 545 285 474 q 298 402 298 346 z"},"&":{"x_min":0,"x_max":812,"ha":812,"o":"m 435 537 q 422 576 398 595 q 374 615 338 615 q 287 615 261 581 q 236 547 236 503 q 236 485 242 467 q 249 449 261 431 q 355 427 355 369 q 355 356 344 349 q 333 341 317 341 q 301 341 290 348 q 279 355 258 381 q 246 396 233 396 q 207 396 183 360 q 159 323 159 283 q 159 189 240 129 q 321 70 447 70 q 527 70 585 87 q 642 104 684 151 q 726 198 726 260 q 726 322 682 370 q 639 419 568 419 q 518 419 484 390 q 450 360 450 324 q 450 290 467 266 q 485 242 510 242 q 523 242 530 244 q 537 247 537 252 q 537 257 526 265 q 510 279 510 293 q 510 311 524 321 q 539 331 554 331 q 571 331 588 318 q 604 305 604 279 q 604 250 581 231 q 557 212 526 212 q 484 212 456 247 q 427 283 427 325 q 427 373 468 417 q 508 461 599 461 q 626 461 661 459 q 695 457 715 457 q 772 457 811 486 q 849 515 849 552 q 849 588 823 615 q 797 641 769 641 q 751 641 751 633 q 751 629 756 621 q 760 612 760 600 q 760 583 746 572 q 732 561 716 561 q 699 561 686 573 q 673 586 673 605 q 673 632 693 648 q 712 665 744 665 q 800 665 839 629 q 878 593 878 533 q 878 485 853 452 q 829 419 794 405 q 760 390 698 385 q 749 325 749 244 q 749 136 661 63 q 574 -9 435 -9 q 290 -9 199 66 q 108 142 108 248 q 108 308 142 353 q 175 397 242 427 q 224 453 215 478 q 206 503 206 528 q 206 582 241 622 q 276 663 332 663 q 379 663 410 634 q 440 605 440 565 q 440 553 435 537 z"},"_":{"x_min":0,"x_max":500,"ha":500,"o":"m -21 -75 l 491 -75 l 491 -125 l -21 -125 z"},"v":{"x_min":0,"x_max":448,"ha":448,"o":"m 271 345 q 248 332 238 332 q 218 332 191 358 q 167 382 154 382 q 143 382 143 374 q 143 367 148 356 q 163 334 163 323 q 163 312 152 300 q 142 288 125 288 q 110 288 100 300 q 91 311 91 326 q 91 359 118 384 q 146 409 176 409 q 195 409 222 395 q 260 375 282 375 q 296 375 308 396 q 320 415 327 415 q 332 415 336 411 q 341 407 341 402 q 341 390 312 363 q 279 333 251 250 q 224 167 224 107 q 224 69 232 50 q 241 30 257 30 q 284 30 331 71 q 377 112 408 172 q 438 233 438 275 q 438 298 417 353 q 410 372 410 386 q 410 397 419 408 q 429 418 443 418 q 466 418 477 392 q 488 367 488 335 q 488 273 441 178 q 395 83 333 35 q 271 -12 218 -12 q 184 -12 165 9 q 146 29 146 59 q 146 100 172 164 q 197 228 233 284 q 260 324 271 345 z"},"O":{"x_min":0,"x_max":688,"ha":688,"o":"m 474 651 q 591 651 657 577 q 724 504 724 389 q 724 241 614 115 q 504 -10 363 -10 q 247 -10 179 73 q 111 156 111 268 q 111 357 159 445 q 206 533 288 592 q 370 651 474 651 z m 496 628 q 436 628 371 579 q 306 529 260 419 q 213 308 213 194 q 213 119 247 66 q 280 13 345 13 q 415 13 477 70 q 538 127 582 242 q 625 357 625 451 q 625 514 594 571 q 563 628 496 628 z"},"(":{"x_min":0,"x_max":312,"ha":312,"o":"m 85 55 q 85 146 101 220 q 117 294 145 360 q 172 426 213 485 q 253 543 308 597 q 363 650 379 658 q 395 666 424 666 q 438 666 438 663 q 438 660 429 654 q 393 631 308 541 q 223 450 173 321 q 123 191 123 62 q 123 -8 137 -78 q 151 -149 176 -201 q 201 -253 206 -259 l 208 -262 q 208 -266 199 -266 q 173 -266 167 -262 q 160 -258 136 -201 q 111 -145 98 -73 q 85 -1 85 55 z"},"C":{"x_min":0,"x_max":604,"ha":604,"o":"m 667 635 l 659 606 q 631 505 625 443 q 623 430 614 430 q 609 430 607 434 q 606 438 605 459 q 600 552 556 590 q 513 629 463 629 q 400 629 346 582 q 292 535 254 438 q 215 340 215 229 q 215 132 258 77 q 301 22 369 22 q 424 22 482 57 q 540 92 577 152 q 586 166 592 166 q 601 166 601 157 q 601 145 567 102 q 532 60 465 24 q 397 -12 320 -12 q 220 -12 165 60 q 109 132 109 232 q 109 334 159 436 q 209 538 298 593 q 387 648 463 648 q 506 648 558 625 q 591 609 603 609 q 622 609 645 635 q 652 644 659 644 q 667 644 667 635 z"},"W":{"x_min":0,"x_max":917,"ha":917,"o":"m 240 144 q 486 402 523 452 q 560 502 560 570 q 560 585 551 594 q 542 603 513 608 q 503 610 503 617 q 503 623 510 625 q 517 626 546 626 l 693 625 q 702 625 717 626 q 744 627 755 627 q 769 627 769 617 q 769 608 757 608 q 722 606 700 590 q 679 573 655 522 q 631 471 595 350 q 560 229 542 131 q 756 329 838 429 q 919 529 919 564 q 919 582 906 596 q 893 610 869 610 q 850 610 845 612 q 840 614 840 621 q 840 631 861 631 l 928 630 q 1003 630 1022 631 q 1060 633 1070 633 q 1090 633 1090 621 q 1090 613 1068 609 q 1039 604 1011 591 q 984 578 966 560 q 948 542 910 490 q 856 417 805 360 q 753 302 635 190 q 522 84 453 5 q 435 -16 430 -16 q 421 -16 421 -2 q 421 16 458 159 q 495 303 528 419 q 488 383 335 214 q 285 159 205 75 q 125 -8 120 -11 q 115 -15 111 -15 q 103 -15 103 -5 q 103 9 125 77 q 151 154 198 327 q 246 500 246 543 q 246 570 228 586 q 209 603 190 604 q 175 605 175 613 q 175 624 192 624 q 224 624 258 625 q 284 626 329 626 q 374 626 397 628 q 418 629 429 629 q 447 629 447 618 q 447 610 438 609 q 405 604 393 595 q 380 586 365 556 q 349 526 318 432 q 287 337 264 257 q 242 177 240 144 z"},"A":{"x_min":0,"x_max":635,"ha":635,"o":"m 671 650 l 605 399 l 541 157 q 528 114 528 83 q 528 27 589 18 q 603 16 603 10 q 603 0 589 0 l 500 3 l 419 2 l 372 2 l 347 1 q 331 1 331 11 q 331 20 344 21 q 394 26 414 58 q 435 90 479 249 q 470 250 334 250 l 309 250 q 283 250 257 219 l 191 134 q 150 82 150 50 q 150 22 205 20 q 225 20 225 10 q 225 4 221 3 q 216 2 188 2 l 43 4 l 9 3 q -1 3 -1 10 q -1 18 14 21 q 32 24 57 38 q 83 52 102 70 q 121 88 159 133 l 291 292 l 425 451 q 465 496 526 571 q 569 625 578 630 q 599 637 671 650 z m 486 273 q 506 343 527 413 q 550 499 559 524 q 564 539 564 551 q 564 560 557 560 q 549 560 532 543 q 515 526 448 446 l 350 328 q 319 290 319 284 q 319 275 332 273 l 344 274 z"},"f":{"x_min":0,"x_max":281,"ha":281,"o":"m 260 376 l 152 -8 q 113 -141 54 -203 q -5 -266 -79 -266 q -124 -266 -153 -242 q -182 -218 -182 -186 q -182 -164 -168 -149 q -155 -134 -136 -134 q -120 -134 -108 -144 q -96 -155 -96 -169 q -96 -178 -102 -191 q -109 -206 -109 -214 q -109 -225 -98 -235 q -87 -244 -69 -244 q -1 -244 47 -129 q 96 -13 161 247 q 187 350 195 375 l 92 373 l 98 400 q 137 403 203 404 q 235 537 295 602 q 354 667 431 667 q 476 667 501 644 q 527 620 527 590 q 527 572 515 558 q 503 544 484 544 q 469 544 457 554 q 446 564 446 580 q 446 590 457 606 q 464 616 464 624 q 464 635 456 641 q 447 646 430 646 q 382 646 345 599 q 307 552 270 410 q 277 408 362 408 q 361 403 360 394 q 359 385 357 379 q 309 378 260 376 z"},"Q":{"x_min":0,"x_max":677,"ha":677,"o":"m 297 -72 q 314 -71 323 -71 q 354 -71 385 -81 q 416 -92 467 -121 q 549 -167 582 -167 q 629 -167 669 -145 q 710 -123 736 -90 q 750 -74 754 -74 q 760 -74 760 -82 q 760 -123 701 -190 q 642 -256 562 -256 q 530 -256 500 -244 q 471 -232 451 -217 q 432 -201 393 -159 q 330 -91 290 -91 q 259 -91 228 -128 q 184 -180 163 -195 q 142 -210 117 -210 q 105 -210 95 -202 q 85 -195 85 -180 q 85 -132 189 -95 q 247 -75 301 -42 q 355 -9 385 22 q 370 21 363 21 q 258 21 187 79 q 115 136 115 254 q 115 412 225 531 q 334 649 464 649 q 573 649 641 577 q 708 504 708 403 q 708 335 683 268 q 657 201 610 145 q 563 89 517 56 q 472 23 391 -18 q 328 -50 297 -72 z m 475 629 q 368 629 291 483 q 213 336 213 217 q 213 126 254 85 q 294 43 341 43 q 401 43 459 98 q 517 153 560 259 q 603 365 603 455 q 603 535 565 582 q 528 629 475 629 z"},"w":{"x_min":0,"x_max":688,"ha":688,"o":"m 284 352 q 263 341 252 341 q 244 341 214 362 q 176 390 152 390 q 141 390 135 387 q 129 384 129 378 q 129 372 145 365 q 166 355 166 331 q 166 318 156 306 q 146 294 129 294 q 109 294 96 307 q 83 320 83 337 q 83 367 112 392 q 141 417 183 417 q 214 417 271 388 q 283 381 290 381 q 302 381 319 403 q 331 417 338 417 q 347 417 347 409 q 347 402 335 388 q 318 369 282 312 q 246 255 228 209 q 211 163 211 128 q 211 95 228 66 q 245 36 276 36 q 330 36 393 109 q 405 124 407 126 q 406 143 406 150 q 406 259 440 335 q 473 411 514 411 q 533 411 543 398 q 552 385 552 359 q 552 323 530 266 q 507 208 465 159 q 478 103 500 73 q 523 44 546 44 q 589 44 636 115 q 684 186 684 262 q 684 286 674 332 q 667 362 667 371 q 667 385 677 394 q 686 403 697 403 q 732 403 732 358 q 732 306 700 202 q 669 98 615 46 q 562 -6 509 -6 q 466 -6 439 20 q 412 46 407 91 q 361 40 317 14 q 272 -12 230 -12 q 193 -12 172 12 q 150 36 150 72 q 150 168 284 352 z m 457 187 q 488 229 504 267 q 520 306 520 340 q 520 360 515 370 q 510 380 500 380 q 488 380 468 348 q 448 316 448 265 q 448 228 457 187 z"},"-":{"x_min":0,"x_max":385,"ha":385,"o":"m 108 236 l 387 235 q 399 235 399 228 l 397 221 l 388 188 q 385 181 383 177 q 381 173 370 173 l 95 174 q 79 174 79 180 q 79 183 83 193 l 93 225 q 96 236 108 236 z"},"E":{"x_min":0,"x_max":677,"ha":677,"o":"m 368 607 q 344 550 313 417 q 301 367 293 346 l 326 345 q 405 345 443 369 q 481 393 503 448 q 510 466 516 466 q 524 466 524 456 q 524 449 521 441 q 516 425 497 352 q 477 278 473 251 q 460 179 458 176 q 456 173 450 173 q 441 173 441 183 l 442 217 q 442 238 432 268 q 421 298 407 309 q 392 320 360 322 q 328 323 289 324 q 278 275 261 216 q 235 126 235 98 q 235 52 267 34 q 298 17 357 17 q 450 17 482 28 q 515 39 565 85 q 615 130 643 167 q 655 182 661 182 q 668 182 668 172 q 668 144 606 -1 l 583 0 l 465 -2 l 183 4 q 152 4 103 0 q 55 -3 33 -3 q 19 -3 19 6 q 19 13 32 16 q 90 25 109 43 q 127 61 153 144 q 178 227 211 360 q 245 494 245 531 q 245 606 166 606 q 147 606 147 615 q 147 625 162 625 l 664 640 q 671 607 672 569 q 674 511 675 503 q 677 492 677 484 q 677 475 669 475 q 662 475 656 488 q 642 526 617 559 q 592 591 571 603 q 549 615 502 615 q 429 615 368 607 z"},"s":{"x_min":0,"x_max":312,"ha":312,"o":"m 300 129 q 300 72 259 30 q 217 -12 161 -12 q 113 -12 86 14 q 59 40 59 62 q 59 77 69 90 q 80 104 98 104 q 114 104 123 94 q 133 84 133 71 q 133 63 128 53 q 124 42 124 36 q 124 23 135 17 q 146 10 168 10 q 205 10 225 31 q 245 52 245 82 q 245 111 207 163 q 145 246 145 297 q 145 343 179 382 q 214 421 264 421 q 300 421 327 401 q 354 381 354 357 q 354 341 344 330 q 333 318 319 318 q 292 318 292 347 l 292 374 q 292 384 279 392 q 266 399 252 399 q 230 399 211 384 q 192 369 192 340 q 192 311 247 241 q 300 173 300 129 z"},">":{"x_min":0,"x_max":667,"ha":667,"o":"m 131 499 l 654 277 l 654 238 l 131 17 l 131 64 l 597 257 l 131 452 z"},"l":{"x_min":0,"x_max":260,"ha":260,"o":"m 339 669 q 330 636 254 393 l 163 91 q 148 33 148 23 q 148 16 154 16 q 168 16 208 49 q 249 83 267 110 q 278 128 284 128 q 292 128 292 120 q 292 104 238 47 q 184 -10 132 -10 q 117 -10 105 1 q 93 12 93 34 q 93 68 103 106 q 113 145 198 414 q 253 591 253 616 q 253 643 196 645 q 175 645 175 654 q 175 665 196 665 z"},"8":{"x_min":0,"x_max":490,"ha":490,"o":"m 370 277 q 457 227 457 152 q 457 86 399 37 q 341 -12 238 -12 q 158 -12 121 26 q 84 63 84 108 q 84 155 123 193 q 161 230 254 262 q 216 289 198 318 q 179 348 179 379 q 179 437 235 483 q 292 529 369 529 q 435 529 475 496 q 515 463 515 417 q 515 368 479 333 q 442 298 370 277 z m 347 290 q 409 311 439 344 q 470 376 470 420 q 470 460 440 484 q 411 507 365 507 q 307 507 271 478 q 234 448 234 407 q 234 387 245 369 q 257 351 287 330 q 316 310 347 290 z m 274 248 q 209 225 172 186 q 134 147 134 102 q 134 61 166 35 q 197 9 248 9 q 305 9 347 44 q 390 79 390 124 q 390 158 363 186 q 336 214 274 248 z"},"\\":{"x_min":0,"x_max":500,"ha":500,"o":"m 216 696 l 255 696 l 438 -18 l 398 -18 z"},"e":{"x_min":0,"x_max":344,"ha":344,"o":"m 154 172 q 139 105 139 70 q 139 49 151 32 q 163 16 183 16 q 212 16 245 40 q 278 64 300 99 q 312 116 321 116 q 330 116 330 107 q 330 83 276 36 q 222 -10 164 -10 q 119 -10 93 23 q 67 56 67 99 q 67 192 152 306 q 237 419 317 419 q 346 419 365 399 q 383 379 383 355 q 383 307 330 257 q 277 208 154 172 z m 162 194 q 235 227 285 277 q 334 328 334 370 q 334 379 327 388 q 320 397 308 397 q 276 397 235 355 q 194 312 162 194 z"},"b":{"x_min":0,"x_max":417,"ha":417,"o":"m 308 667 l 224 374 q 295 419 334 419 q 384 419 410 377 q 437 335 437 278 q 437 170 358 80 q 279 -11 202 -11 q 154 -11 123 18 q 93 46 93 98 q 93 147 132 285 l 222 592 q 227 609 227 620 q 227 647 181 649 q 169 650 169 659 q 169 667 179 667 l 257 665 q 280 665 308 667 z m 221 13 q 279 13 324 97 q 368 181 368 291 q 368 342 355 368 q 341 393 314 393 q 280 393 242 353 q 205 313 183 232 q 161 151 161 109 q 161 61 176 37 q 191 13 221 13 z"},"%":{"x_min":0,"x_max":740,"ha":740,"o":"m 752 652 l 147 -13 l 111 -13 l 716 652 z m 125 453 q 125 541 179 596 q 233 652 303 652 q 360 652 394 612 q 428 571 428 514 q 428 434 372 377 q 315 320 251 320 q 197 320 161 357 q 125 394 125 453 z m 180 422 q 180 388 198 364 q 215 341 247 341 q 295 341 333 409 q 371 478 371 553 q 371 588 355 610 q 339 633 308 633 q 251 633 216 563 q 180 493 180 422 z m 432 122 q 432 203 487 261 q 541 319 610 319 q 663 319 700 281 q 736 244 736 183 q 736 97 681 42 q 625 -13 555 -13 q 494 -13 463 29 q 432 72 432 122 z m 488 88 q 488 50 505 29 q 522 8 552 8 q 608 8 645 78 q 681 149 681 223 q 681 251 665 275 q 648 299 620 299 q 567 299 528 234 q 488 170 488 88 z"},"m":{"x_min":0,"x_max":698,"ha":698,"o":"m 82 -7 q 151 180 175 259 q 198 338 198 355 q 198 364 195 368 q 192 372 186 372 q 164 372 100 282 q 87 264 81 264 q 71 264 71 271 q 71 283 124 347 q 176 412 215 412 q 236 412 247 400 q 257 389 257 366 q 257 330 222 229 q 229 239 251 277 q 334 420 403 420 q 435 420 449 400 q 463 380 463 353 q 463 325 438 229 q 501 348 543 384 q 585 420 622 420 q 648 420 665 404 q 681 387 681 362 q 681 312 607 104 q 586 48 586 37 q 586 30 590 27 q 593 23 599 23 q 611 23 650 56 q 689 88 709 114 q 719 128 728 128 q 735 128 735 122 q 735 104 671 46 q 606 -11 562 -11 q 546 -11 536 0 q 525 12 525 30 q 525 56 547 115 q 619 311 619 365 q 619 378 615 385 q 610 392 601 392 q 556 392 489 277 q 422 163 361 -7 q 344 -9 325 -9 q 312 -9 302 -7 q 402 270 402 330 q 402 358 396 372 q 389 386 376 386 q 341 386 274 274 q 207 163 145 -7 q 132 -9 125 -9 q 122 -9 114 -8 q 97 -7 82 -7 z"},"#":{"x_min":0,"x_max":667,"ha":667,"o":"m 111 463 l 274 463 l 317 667 l 360 667 l 317 463 l 539 463 l 582 667 l 625 667 l 582 463 l 686 463 l 686 420 l 573 420 l 532 222 l 686 222 l 686 179 l 523 179 l 481 -23 l 438 -23 l 480 179 l 257 179 l 216 -23 l 172 -23 l 214 179 l 111 179 l 111 222 l 224 222 l 265 420 l 111 420 z m 308 420 l 266 223 l 489 223 l 531 420 z"},",":{"x_min":0,"x_max":188,"ha":188,"o":"m 102 -13 q 35 -13 35 40 q 35 63 52 77 q 68 90 88 90 q 119 90 137 64 q 155 38 155 3 q 155 -67 103 -115 q 50 -162 25 -162 q 16 -162 16 -152 q 16 -146 25 -142 q 105 -100 105 -39 q 105 -33 104 -27 q 104 -21 102 -13 z"},"n":{"x_min":0,"x_max":479,"ha":479,"o":"m 238 245 q 290 332 335 375 q 380 418 419 418 q 442 418 455 402 q 467 385 467 363 q 467 335 459 305 q 451 276 418 186 q 375 65 375 44 q 375 28 389 28 q 402 28 428 50 q 455 71 468 92 q 480 114 489 114 q 497 114 497 104 q 497 84 447 36 q 397 -13 351 -13 q 306 -13 306 25 q 306 64 378 251 q 406 324 406 360 q 406 371 402 377 q 397 382 389 382 q 374 382 334 345 q 293 308 242 212 q 191 117 158 38 q 138 -12 132 -12 q 84 -12 84 1 l 85 6 l 168 245 q 200 332 200 366 q 200 380 187 380 q 174 380 147 356 q 120 332 104 311 q 91 294 83 294 q 76 294 76 302 q 76 317 129 368 q 182 419 230 419 q 246 419 254 408 q 263 396 263 384 q 263 365 238 245 z"},"h":{"x_min":0,"x_max":458,"ha":458,"o":"m 208 262 q 280 354 322 389 q 364 424 396 424 q 421 424 436 408 q 451 393 451 370 q 451 329 402 191 q 357 64 357 39 q 357 23 371 23 q 385 23 413 48 q 440 73 464 105 q 472 116 478 116 q 486 116 486 105 q 486 90 434 39 q 382 -12 335 -12 q 288 -12 288 23 q 288 48 302 86 q 326 146 356 240 q 386 333 386 361 q 386 372 382 377 q 378 383 370 383 q 347 383 298 340 q 249 297 217 238 q 185 180 152 75 q 131 10 127 0 q 123 -10 117 -10 q 103 -10 83 -5 q 62 0 62 4 q 62 9 65 15 q 70 29 138 237 l 207 454 l 243 581 q 250 599 250 611 q 250 627 196 637 q 178 641 178 650 q 178 659 197 659 l 282 659 q 324 658 327 657 q 330 655 330 652 l 328 646 q 326 642 325 635 q 312 577 208 262 z"},"z":{"x_min":0,"x_max":479,"ha":479,"o":"m 384 315 q 371 317 364 317 q 357 317 339 314 q 322 312 313 312 q 292 312 276 322 q 259 332 224 364 q 200 386 183 386 q 160 386 140 367 q 120 348 120 317 q 120 302 125 294 q 131 287 142 287 q 142 339 180 339 q 198 339 211 327 q 225 315 225 296 q 225 273 208 259 q 191 244 169 244 q 141 244 120 267 q 99 289 99 320 q 99 359 132 389 q 165 419 202 419 q 255 419 341 367 q 379 344 397 344 q 407 344 416 355 q 467 420 494 420 q 502 420 508 414 q 514 407 514 400 q 514 378 470 355 q 447 343 434 333 q 422 323 353 257 q 284 191 264 169 q 239 144 231 136 q 206 114 206 105 l 207 100 q 233 104 244 104 q 273 104 306 82 q 338 59 347 55 q 355 51 369 51 q 432 51 465 140 q 473 161 481 161 q 490 161 490 152 q 490 145 466 96 q 443 47 410 17 q 377 -14 349 -14 q 322 -14 286 7 q 250 27 222 54 q 199 77 185 77 q 149 77 119 23 q 100 -11 78 -11 q 68 -11 62 -3 q 55 5 55 16 q 55 37 93 57 q 148 87 194 132 z"},"B":{"x_min":0,"x_max":625,"ha":625,"o":"m 477 334 q 558 313 599 273 q 640 233 640 174 q 640 128 610 83 q 581 38 527 17 q 474 -5 358 -5 q 315 -5 249 -1 q 214 0 193 0 l 24 -6 q 10 -6 10 4 q 10 11 23 12 q 82 16 103 31 q 125 47 142 90 q 159 132 212 329 q 265 525 265 577 q 265 596 241 609 q 218 621 189 624 q 173 625 173 634 q 173 642 184 642 q 186 642 190 642 q 283 631 370 631 l 490 633 q 569 633 619 596 q 668 559 668 496 q 668 432 620 391 q 572 351 477 334 z m 304 344 l 387 344 q 472 344 529 389 q 585 434 585 504 q 585 558 556 585 q 527 612 469 612 q 407 612 388 599 q 369 586 347 521 q 326 456 304 344 z m 296 319 q 295 316 280 263 q 235 105 235 62 q 235 39 255 27 q 275 15 343 15 q 438 15 491 62 q 544 110 544 180 q 544 241 499 282 q 455 323 362 323 q 338 323 296 319 z"},"K":{"x_min":0,"x_max":646,"ha":646,"o":"m 274 279 q 260 227 247 156 q 233 84 233 61 q 233 30 282 20 q 299 16 299 8 q 299 3 290 1 q 281 0 256 0 q 250 0 222 1 q 216 2 146 2 l 100 2 l 62 0 q 49 0 49 9 q 49 18 71 20 q 92 22 109 36 q 126 50 135 73 q 144 96 169 201 l 219 409 q 243 512 243 568 q 243 613 192 614 q 167 615 167 624 q 167 629 174 633 q 188 635 208 635 l 325 635 l 379 634 l 428 635 q 443 635 443 625 q 443 618 434 618 q 391 616 372 600 q 354 584 327 498 q 301 413 279 308 q 349 349 456 440 q 563 530 576 547 q 588 563 588 583 q 588 613 543 617 q 532 618 532 626 q 532 635 542 635 l 653 633 l 687 635 l 712 633 l 756 636 q 767 633 767 625 q 767 618 758 617 q 711 611 652 570 q 593 528 407 372 q 459 345 483 309 q 506 273 515 180 q 524 74 544 50 q 565 25 608 22 q 636 21 636 12 q 636 4 625 4 q 622 4 585 2 q 555 1 471 1 q 451 13 444 39 q 436 64 434 140 q 430 314 341 314 q 321 314 274 279 z"},"R":{"x_min":0,"x_max":667,"ha":667,"o":"m 296 325 q 283 293 258 197 q 232 101 232 68 q 232 25 304 21 q 318 20 318 12 q 318 1 300 1 q 286 1 253 3 q 229 5 171 5 q 115 5 81 3 q 68 3 60 3 q 47 3 47 11 q 47 19 68 21 q 96 24 109 33 q 122 42 130 62 q 138 83 170 204 l 226 422 q 250 520 250 556 q 250 580 237 594 q 223 609 182 618 q 170 620 170 627 q 170 636 181 636 q 193 636 216 634 q 240 632 273 632 l 445 634 q 564 634 615 595 q 666 555 666 492 q 666 431 621 386 q 576 341 492 325 q 544 293 556 259 q 569 226 569 189 q 569 172 566 156 q 557 88 557 69 q 557 57 565 49 q 573 40 583 40 q 604 40 644 67 q 667 83 672 83 q 679 83 679 76 q 679 68 651 48 q 623 28 587 10 q 552 -8 517 -8 q 492 -8 474 8 q 456 23 456 54 q 456 76 464 116 q 476 166 476 203 q 476 259 463 284 q 451 309 433 318 q 415 327 356 327 q 341 327 296 325 z m 301 347 q 329 346 343 346 q 428 346 472 361 q 516 377 541 421 q 566 464 566 510 q 566 556 532 584 q 498 613 439 613 q 408 613 371 608 q 370 604 353 554 q 340 520 321 445 q 302 369 301 347 z"},"T":{"x_min":0,"x_max":708,"ha":708,"o":"m 539 605 q 501 507 444 296 q 387 85 387 59 q 387 42 410 32 q 433 23 501 18 q 512 17 512 11 q 512 -2 487 -2 l 377 0 l 198 -1 q 177 -1 177 8 q 177 19 204 19 q 252 19 271 34 q 289 49 301 97 l 346 264 l 393 442 l 433 601 q 403 607 371 607 q 303 607 248 571 q 194 536 148 480 q 138 468 133 468 q 125 468 125 476 q 125 484 147 537 q 169 589 195 632 l 498 627 l 734 633 q 743 633 764 632 l 771 529 q 774 494 774 467 q 774 456 765 456 q 759 456 758 462 q 728 609 584 609 q 562 609 539 605 z"},"P":{"x_min":0,"x_max":646,"ha":646,"o":"m 296 297 q 247 116 247 73 q 247 21 303 17 q 334 14 334 6 q 334 -4 316 -4 q 293 -4 259 -2 q 227 0 146 0 l 73 1 q 50 0 40 0 q 25 0 25 10 q 25 19 50 21 q 89 23 114 44 q 138 66 156 125 q 174 184 213 347 q 253 509 253 542 q 253 569 238 592 q 223 614 191 615 q 171 616 171 624 q 171 633 185 633 l 297 631 l 476 634 q 588 634 647 591 q 706 548 706 477 q 706 398 635 344 q 563 289 404 289 q 351 289 296 297 z m 302 317 q 350 311 380 311 q 494 311 549 365 q 604 420 604 488 q 604 534 568 573 q 533 613 463 613 q 425 613 381 604 q 335 450 302 317 z"},"|":{"x_min":0,"x_max":500,"ha":500,"o":"m 299 667 l 342 667 l 342 -266 l 299 -266 z"},"t":{"x_min":0,"x_max":281,"ha":281,"o":"m 254 388 q 250 374 228 310 q 156 104 156 60 q 156 31 178 31 q 214 31 285 114 q 294 125 301 125 q 310 125 310 118 q 310 105 250 47 q 189 -11 125 -11 q 102 -11 91 2 q 80 15 80 29 q 80 62 101 119 q 102 123 190 384 l 144 385 l 112 384 q 105 384 105 391 q 105 405 108 407 q 111 409 134 411 q 158 413 199 413 q 211 454 229 505 l 248 561 q 250 564 254 564 q 271 564 288 560 q 305 555 305 550 l 304 546 l 259 411 l 319 409 q 349 408 350 407 q 352 407 352 404 q 352 382 344 382 l 308 385 z"},"M":{"x_min":0,"x_max":885,"ha":885,"o":"m 406 633 q 407 622 413 557 q 424 435 471 160 q 522 223 641 401 l 791 627 q 866 631 875 631 l 926 630 l 992 628 q 1008 627 1011 625 q 1014 622 1014 619 q 1014 610 1001 609 q 947 608 911 565 q 875 523 821 334 q 767 145 767 85 q 767 49 789 34 q 810 20 838 18 q 852 17 852 9 q 852 0 839 0 l 688 1 q 639 1 597 0 q 582 -1 574 -1 q 559 -1 559 8 q 559 14 563 16 q 567 18 602 25 q 630 32 646 55 q 663 78 714 266 q 766 453 791 573 q 721 487 490 130 q 467 95 455 78 q 426 41 420 28 q 411 7 404 7 q 401 7 396 10 q 346 438 313 559 q 289 506 254 381 l 196 173 q 172 91 172 70 q 172 42 196 32 q 220 23 232 22 q 268 21 268 10 q 268 0 250 0 q 243 0 227 1 q 220 1 79 1 l 42 1 q 19 1 19 10 q 19 19 34 20 q 52 21 83 33 q 114 45 126 58 q 139 72 150 104 q 162 135 195 256 l 249 450 q 269 522 269 547 q 269 567 259 582 q 249 597 235 603 q 222 608 177 618 q 168 620 168 627 q 168 636 180 636 l 220 634 l 290 634 l 338 633 l 394 633 z"},"g":{"x_min":0,"x_max":469,"ha":469,"o":"m 425 350 q 438 327 438 298 q 438 254 417 215 q 396 175 360 148 q 323 122 292 114 q 261 106 216 105 q 130 104 130 78 q 130 48 218 32 q 308 17 344 2 q 381 -12 402 -39 q 422 -67 422 -99 q 422 -161 353 -214 q 284 -266 176 -266 q 90 -266 41 -235 q -9 -204 -9 -161 q -9 -123 33 -81 q 75 -40 140 -15 q 81 7 81 50 q 81 75 104 95 q 126 115 172 123 q 145 146 131 172 q 117 199 117 229 q 117 306 175 363 q 233 420 312 420 q 345 420 371 407 q 396 394 414 368 q 463 422 500 422 q 523 422 540 407 q 557 393 557 374 q 557 361 548 350 q 540 338 525 338 q 508 338 491 359 q 476 378 463 378 q 450 378 425 350 z m 306 400 q 257 400 220 341 q 183 281 183 205 q 183 168 202 147 q 221 127 245 127 q 297 127 332 191 q 367 255 367 317 q 367 356 350 378 q 333 400 306 400 z m 173 -29 q 111 -40 81 -79 q 51 -119 51 -158 q 51 -197 86 -221 q 121 -246 186 -246 q 262 -246 313 -209 q 364 -172 364 -126 q 364 -90 331 -70 q 298 -50 190 -32 z"},"j":{"x_min":0,"x_max":250,"ha":250,"o":"m 297 658 q 312 658 324 647 q 335 636 335 620 q 335 604 324 592 q 312 581 297 581 q 281 581 270 592 q 258 604 258 620 q 258 636 270 647 q 281 658 297 658 z m -68 -265 q -103 -265 -128 -245 q -153 -225 -153 -191 q -153 -170 -140 -156 q -127 -143 -107 -143 q -71 -143 -71 -176 q -71 -189 -83 -205 q -96 -221 -96 -229 q -96 -238 -88 -242 q -80 -247 -64 -247 q -4 -247 35 -177 q 73 -106 160 202 l 196 329 q 205 356 205 376 q 205 385 201 389 q 197 393 189 393 q 163 393 119 337 q 96 309 90 309 q 81 309 81 317 q 81 325 127 375 q 173 426 218 426 q 238 426 251 412 q 265 399 265 382 q 265 343 203 139 q 141 -65 116 -125 q 92 -185 42 -225 q -9 -265 -68 -265 z"},"i":{"x_min":0,"x_max":281,"ha":281,"o":"m 312 656 q 328 656 339 645 q 351 633 351 618 q 351 602 339 590 q 328 579 312 579 q 296 579 285 590 q 274 602 274 618 q 274 634 285 645 q 297 656 312 656 z m 154 30 q 154 21 158 17 q 162 13 168 13 q 184 13 210 30 q 237 47 262 73 q 272 84 279 84 q 288 84 288 76 q 288 59 238 24 q 189 -12 147 -12 q 120 -12 106 -1 q 92 10 92 25 q 92 47 146 179 q 215 345 215 367 q 215 376 212 380 q 209 384 202 384 q 181 384 135 339 q 117 322 109 322 q 103 322 103 330 q 103 342 154 382 q 205 421 245 421 q 262 421 274 408 q 286 396 286 382 q 286 364 280 347 q 273 330 207 171 q 154 38 154 30 z"},"y":{"x_min":0,"x_max":375,"ha":375,"o":"m 264 58 q 301 113 332 189 q 363 264 363 305 q 363 329 355 358 q 351 374 351 380 q 351 417 380 417 q 393 417 402 406 q 410 395 410 380 q 410 340 382 257 q 354 173 290 58 q 226 -56 160 -134 q 94 -211 54 -236 q 14 -261 -15 -261 q -41 -261 -59 -246 q -77 -230 -77 -203 q -77 -184 -66 -170 q -56 -156 -38 -156 q -5 -156 -4 -199 q -4 -225 16 -225 q 73 -225 212 -26 q 199 103 181 218 q 164 333 156 351 q 148 369 137 369 q 114 369 80 294 q 64 261 55 261 q 47 261 47 269 q 47 276 53 288 l 80 341 q 94 369 108 386 q 123 404 138 412 q 153 420 166 420 q 195 420 209 380 q 224 340 244 191 q 257 87 264 58 z"},"@":{"x_min":0,"x_max":917,"ha":917,"o":"m 723 468 l 666 273 q 620 118 620 88 q 620 74 630 62 q 640 50 657 50 q 697 50 747 90 q 797 129 830 207 q 864 285 864 369 q 864 499 776 584 q 688 669 547 669 q 432 669 337 609 q 242 548 185 438 q 128 327 128 202 q 128 31 236 -77 q 344 -186 508 -186 q 606 -186 688 -148 q 770 -110 822 -49 q 873 13 903 84 l 932 84 q 890 -49 772 -133 q 654 -216 510 -216 q 324 -216 203 -92 q 83 31 83 215 q 83 417 216 555 q 350 694 550 694 q 706 694 799 600 q 893 505 893 359 q 893 223 816 119 q 738 15 625 15 q 587 15 568 32 q 549 49 549 83 q 549 109 558 154 q 445 15 365 15 q 326 15 301 49 q 277 83 277 129 q 277 196 319 279 q 360 362 427 416 q 494 471 547 471 q 581 471 601 454 q 622 437 630 403 l 646 457 z m 551 448 q 487 448 421 332 q 354 217 354 145 q 354 117 369 95 q 385 74 411 74 q 457 74 512 133 q 567 192 590 264 q 612 336 612 376 q 612 406 596 427 q 580 448 551 448 z"},".":{"x_min":0,"x_max":219,"ha":219,"o":"m 133 86 q 153 86 167 72 q 182 58 182 38 q 182 18 167 4 q 153 -10 133 -10 q 113 -10 99 4 q 85 18 85 38 q 85 59 100 72 q 114 86 133 86 z"},"p":{"x_min":0,"x_max":438,"ha":438,"o":"m 202 388 l 245 538 q 279 537 309 533 l 272 407 q 296 412 316 412 q 382 412 416 370 q 450 328 450 273 q 450 164 368 89 q 286 14 146 -8 q 91 -168 91 -212 q 91 -244 153 -250 q 165 -251 165 -258 q 165 -268 152 -268 l 45 -265 q 20 -265 -8 -268 q -43 -271 -62 -271 q -76 -271 -76 -262 q -76 -253 -55 -251 q -21 -250 -3 -235 q 16 -221 32 -175 q 48 -129 101 49 l 192 357 q 167 344 130 312 q 94 281 79 261 q 60 236 53 236 q 46 236 46 244 q 46 260 94 307 q 142 354 202 388 z m 157 22 q 170 20 175 20 q 233 20 305 85 q 376 150 376 255 q 376 326 351 356 q 325 387 288 387 q 278 387 266 383 z"},"X":{"x_min":0,"x_max":708,"ha":708,"o":"m 462 338 q 529 164 576 98 q 623 32 667 24 q 694 20 698 18 q 702 17 702 11 q 702 2 690 2 l 587 5 l 375 2 q 364 2 364 10 q 364 18 375 19 q 472 32 472 65 q 472 76 449 135 l 394 272 q 307 185 268 136 q 229 87 229 62 q 229 45 240 31 q 252 18 277 18 q 300 17 300 9 q 300 -1 285 -1 l 192 0 q 143 0 107 -2 q 81 -4 66 -4 q 50 -4 50 5 q 50 12 62 13 q 92 16 126 32 q 160 49 239 137 l 322 226 l 384 293 q 329 432 296 501 q 263 571 240 589 q 218 607 175 607 q 151 607 151 615 q 151 627 172 627 l 218 626 q 326 626 370 628 l 444 632 q 466 632 466 621 q 466 612 438 610 q 406 608 393 595 q 380 582 380 566 q 380 537 403 485 l 452 362 q 466 375 524 438 q 582 502 592 519 q 601 536 601 556 q 601 601 548 607 q 524 610 524 618 q 524 627 538 627 q 545 627 564 626 q 583 625 627 625 q 690 625 716 627 q 756 632 774 632 q 789 632 789 621 q 789 614 765 609 q 710 598 664 556 q 617 514 462 338 z"},"*":{"x_min":0,"x_max":500,"ha":500,"o":"m 344 669 q 373 669 373 630 q 373 609 369 572 l 359 492 l 359 488 q 359 481 363 481 q 366 481 377 499 q 449 611 484 611 q 492 611 500 605 q 507 599 507 589 q 507 579 503 573 q 499 567 456 535 q 414 503 390 488 q 376 478 376 475 q 376 469 384 469 q 386 469 390 470 q 402 474 418 476 l 514 489 q 559 487 559 460 q 559 436 531 436 q 518 436 502 438 l 450 446 q 403 451 392 455 q 388 457 385 457 q 377 457 377 452 l 389 442 q 395 438 444 402 q 494 365 502 353 q 510 341 510 331 q 510 322 502 315 q 494 309 484 309 q 452 309 374 430 l 368 437 q 364 437 364 429 q 364 427 364 423 q 365 419 371 361 q 376 303 376 282 q 376 251 352 251 q 324 251 324 287 q 324 304 333 361 q 343 417 346 424 q 347 428 347 430 q 347 436 343 436 q 341 436 321 409 q 273 342 254 322 q 235 302 223 302 q 213 302 206 310 q 200 317 200 326 q 200 335 205 343 q 210 351 247 382 q 284 414 311 431 q 327 441 327 444 q 327 448 323 448 l 319 447 q 316 446 255 436 q 195 426 178 426 q 141 426 141 454 q 141 467 151 474 q 162 481 174 481 q 198 481 313 462 q 318 460 322 460 q 329 460 329 464 q 329 467 318 474 q 310 479 291 494 q 252 523 219 545 q 187 567 187 587 q 187 597 194 604 q 202 611 211 611 q 225 611 241 594 q 257 578 332 489 q 337 480 341 480 q 345 480 345 486 l 345 490 q 341 500 330 552 q 319 605 319 631 q 319 648 326 659 q 334 669 344 669 z"},"Y":{"x_min":0,"x_max":698,"ha":698,"o":"m 433 344 l 488 445 q 519 501 561 550 q 603 599 648 624 q 694 649 736 649 q 766 649 785 628 q 804 607 804 584 q 804 563 791 545 q 778 526 753 526 q 736 526 726 535 q 717 544 697 582 q 687 603 669 603 q 634 603 571 529 q 508 455 440 300 q 373 146 373 75 q 373 45 392 29 q 411 14 441 13 q 474 13 479 11 q 483 9 483 4 q 483 -5 464 -5 l 272 0 q 229 0 190 -3 q 167 -5 152 -5 q 136 -5 136 5 q 136 11 141 12 q 146 14 171 15 q 223 16 254 52 q 286 87 328 242 q 371 398 371 478 q 371 542 349 574 q 327 605 297 605 q 268 605 238 586 q 209 567 194 543 q 178 519 164 473 l 154 442 q 152 436 146 436 q 138 436 138 444 q 138 474 163 528 q 188 583 233 613 q 277 644 320 644 q 368 644 405 597 q 442 551 442 468 q 442 403 433 344 z"},"c":{"x_min":0,"x_max":333,"ha":333,"o":"m 325 417 q 350 417 370 399 q 390 381 390 356 q 390 339 380 329 q 370 319 358 319 q 344 319 337 328 q 331 336 324 358 q 318 381 312 385 q 307 390 298 390 q 270 390 230 346 q 190 302 164 225 q 138 147 138 94 q 138 54 152 34 q 165 14 191 14 q 220 14 254 43 q 289 71 311 104 q 323 122 331 122 q 338 122 338 113 q 338 96 285 42 q 232 -12 162 -12 q 116 -12 89 15 q 62 42 62 87 q 62 164 110 245 q 158 326 216 371 q 274 417 325 417 z"},"!":{"x_min":0,"x_max":302,"ha":302,"o":"m 177 144 q 169 144 169 152 l 170 157 q 183 201 203 323 q 224 444 231 519 q 240 603 255 621 q 271 639 290 639 q 311 639 322 626 q 333 612 333 600 q 333 578 296 469 l 222 256 q 187 152 183 148 q 180 144 177 144 z m 154 73 q 171 73 184 61 q 196 49 196 31 q 196 14 184 2 q 172 -10 154 -10 q 137 -10 125 2 q 113 14 113 31 q 113 48 125 61 q 137 73 154 73 z"},"/":{"x_min":0,"x_max":500,"ha":500,"o":"m 562 696 l 607 696 l 98 -18 l 53 -18 z"},"[":{"x_min":0,"x_max":448,"ha":448,"o":"m 250 589 q 250 585 205 387 l 120 13 l 74 -183 q 227 -144 269 -144 q 310 -144 338 -169 q 367 -194 367 -224 q 367 -242 357 -253 q 347 -265 341 -265 q 331 -265 331 -257 q 331 -253 334 -249 q 342 -237 342 -229 q 342 -219 333 -211 q 325 -203 282 -203 q 194 -203 125 -209 q 79 -213 54 -213 q 43 -213 43 -205 q 43 -202 69 -94 l 125 145 l 179 384 l 227 605 q 229 615 233 615 q 260 615 314 611 q 375 606 484 606 q 509 606 522 616 q 535 626 535 638 q 535 641 531 653 l 531 657 q 531 666 539 666 q 548 666 553 652 q 559 638 559 627 q 559 594 527 569 q 495 545 464 545 q 421 545 250 589 z"},"6":{"x_min":0,"x_max":490,"ha":490,"o":"m 197 273 q 258 333 336 333 q 407 333 451 290 q 495 248 495 180 q 495 104 432 46 q 370 -11 285 -11 q 205 -11 155 45 q 105 102 105 192 q 105 313 192 422 q 279 530 417 530 q 481 530 518 502 q 556 474 556 433 q 556 383 515 383 q 499 383 489 393 q 479 402 479 415 q 479 423 485 438 q 492 453 492 461 q 492 482 470 495 q 448 509 420 509 q 376 509 334 481 q 291 454 259 407 q 227 361 197 273 z m 174 141 q 174 84 206 46 q 238 8 285 8 q 346 8 381 65 q 417 123 417 191 q 417 241 389 274 q 362 307 315 307 q 258 307 216 261 q 174 216 174 141 z"},"r":{"x_min":0,"x_max":375,"ha":375,"o":"m 243 280 q 284 349 321 383 q 357 417 390 417 q 411 417 426 405 q 440 392 440 371 q 440 354 428 338 q 417 323 399 323 q 368 323 360 351 q 355 370 347 370 q 332 370 296 322 q 260 274 224 201 l 155 -10 l 129 -10 l 102 -10 l 95 -10 q 98 1 124 81 q 195 347 195 373 q 195 382 188 382 q 178 382 152 357 q 126 332 107 304 q 92 282 84 282 q 76 282 76 290 q 76 302 126 360 q 177 417 215 417 q 235 417 245 406 q 255 394 255 380 q 255 365 250 332 q 248 321 243 280 z"},"2":{"x_min":0,"x_max":490,"ha":490,"o":"m 386 0 q 356 -1 237 -1 l 153 -2 l 85 -2 l 56 -3 q 40 -2 40 4 q 40 9 66 23 q 97 41 213 123 q 328 206 385 280 q 443 354 443 416 q 443 458 417 483 q 391 508 346 508 q 274 508 223 446 q 172 384 172 332 q 172 312 187 298 q 202 284 219 284 q 242 284 264 298 q 286 312 297 330 q 312 353 320 353 q 329 353 329 345 q 329 328 288 293 q 248 258 199 258 q 162 258 142 281 q 123 305 123 339 q 123 406 198 468 q 273 530 373 530 q 444 530 483 494 q 522 458 522 410 q 522 341 467 278 q 411 214 251 119 q 184 80 161 64 l 292 65 q 359 66 370 68 q 382 70 401 83 q 421 97 433 115 q 448 139 457 139 q 467 139 467 130 q 467 125 450 101 q 435 78 421 56 q 391 5 386 0 z"},"{":{"x_min":0,"x_max":479,"ha":479,"o":"m 434 -242 l 434 -259 q 356 -250 303 -195 q 250 -140 250 -70 q 250 -37 261 6 q 273 58 273 81 q 273 118 243 149 q 212 180 162 186 l 162 206 q 213 212 243 243 q 273 273 273 311 q 273 334 261 385 q 250 428 250 461 q 250 531 303 586 q 356 642 434 651 l 434 634 q 324 606 324 518 q 324 493 335 441 q 346 397 346 365 q 346 314 308 267 q 271 221 202 197 q 269 172 307 125 q 346 79 346 26 q 346 -5 335 -50 q 324 -101 324 -126 q 324 -215 434 -242 z"},"9":{"x_min":0,"x_max":490,"ha":490,"o":"m 413 245 q 348 187 276 187 q 201 187 158 229 q 116 271 116 335 q 116 412 177 470 q 238 529 323 529 q 404 529 455 474 q 505 419 505 325 q 505 202 418 91 q 331 -19 192 -19 q 123 -19 88 10 q 52 38 52 77 q 52 127 94 127 q 109 127 119 118 q 129 108 129 95 q 129 87 121 72 q 115 60 115 51 q 115 27 138 14 q 162 1 192 1 q 229 1 273 29 q 317 56 354 113 q 392 170 413 245 z m 195 321 q 195 269 226 240 q 257 212 294 212 q 350 212 394 257 q 438 301 438 373 q 438 434 405 472 q 373 509 324 509 q 268 509 231 454 q 195 399 195 321 z"}," ":{"x_min":0,"x_max":245,"ha":245,"o":""},"I":{"x_min":0,"x_max":344,"ha":344,"o":"m 443 630 q 451 626 451 621 q 451 613 440 612 q 400 608 383 596 q 367 585 356 561 q 345 538 312 417 q 278 296 254 192 q 229 89 229 69 q 229 25 281 21 q 303 19 303 10 q 303 1 285 1 l 115 4 l 49 2 q 34 2 34 11 q 34 20 58 23 q 101 29 119 47 q 136 66 149 120 l 198 310 l 242 481 q 260 551 260 562 q 260 611 189 616 q 175 618 175 626 q 175 632 179 634 q 184 635 204 635 z"},"H":{"x_min":0,"x_max":771,"ha":771,"o":"m 284 335 q 329 331 433 331 q 580 331 627 333 q 671 493 671 547 q 671 572 654 591 q 637 609 598 609 q 573 609 573 620 q 573 629 586 629 q 593 629 602 628 q 670 624 789 624 l 868 625 q 882 625 882 616 q 882 607 869 606 q 829 603 811 595 q 793 588 780 567 q 766 545 759 522 q 752 500 714 339 q 675 179 668 140 q 661 101 661 76 q 661 55 678 37 q 695 20 718 19 q 744 17 744 8 q 744 -3 726 -3 l 631 0 l 476 -3 q 461 -3 461 6 q 461 14 474 15 q 523 20 544 42 q 564 63 591 177 l 620 305 q 554 308 445 308 l 277 308 q 271 272 253 205 q 233 124 233 93 q 233 21 313 17 q 333 16 333 7 q 333 -1 323 -1 l 191 0 l 41 -1 q 26 -1 26 9 q 26 16 52 21 q 84 27 100 39 q 115 51 130 82 q 145 114 168 209 q 192 304 215 407 q 237 510 237 538 q 237 577 220 593 q 204 608 164 611 q 151 612 151 620 q 151 630 165 630 l 326 628 l 422 629 q 444 629 444 618 q 444 609 430 609 q 402 609 379 599 q 356 589 344 571 q 333 553 316 482 z"},"4":{"x_min":0,"x_max":490,"ha":490,"o":"m 383 225 l 453 225 q 479 225 496 242 q 513 260 517 282 q 520 294 527 294 q 537 294 537 285 q 537 274 530 256 l 487 118 q 481 110 477 110 q 468 110 468 121 q 468 124 469 128 q 473 140 473 152 q 473 169 467 181 q 460 192 450 198 q 439 203 421 203 l 377 204 l 348 106 q 339 81 339 65 q 339 50 351 35 q 363 21 394 19 q 416 17 416 8 q 416 -1 397 -1 q 386 -1 352 2 q 331 4 304 4 q 281 4 261 2 q 217 0 211 0 q 183 0 183 9 q 183 18 207 19 q 229 20 243 29 q 256 38 264 53 q 271 69 293 144 q 307 194 312 204 l 301 204 l 67 204 q 67 211 74 225 q 90 237 163 303 q 268 397 351 463 l 439 531 q 445 534 462 534 q 476 534 476 526 q 476 517 383 225 z m 103 225 q 146 225 167 225 l 318 225 l 362 369 q 390 459 394 468 q 327 425 103 225 z"},"~":{"x_min":0,"x_max":667,"ha":667,"o":"m 631 325 l 652 325 q 651 264 617 228 q 583 191 534 191 q 509 191 481 200 q 453 209 352 251 q 276 282 244 282 q 171 282 153 192 l 132 192 q 134 259 169 293 q 204 326 246 326 q 290 326 431 266 q 506 234 540 234 q 577 234 602 258 q 627 282 631 325 z"},"D":{"x_min":0,"x_max":740,"ha":740,"o":"m 168 629 q 220 629 337 638 q 402 643 434 643 q 556 643 620 607 q 685 571 725 499 q 765 427 765 328 q 765 237 722 158 q 679 80 586 39 q 492 -1 350 -1 l 213 2 q 208 2 174 0 q 123 -3 84 -3 q 65 -3 60 -3 q 54 -4 50 -4 q 37 -4 37 5 q 37 12 57 16 q 102 27 119 39 q 137 50 145 74 q 236 452 236 532 q 236 565 215 588 q 193 611 159 611 q 137 611 137 620 q 137 630 168 629 z m 432 621 q 384 621 365 593 q 345 565 301 372 q 257 180 257 99 q 257 20 365 20 q 449 20 515 61 q 581 102 622 192 q 662 282 662 361 q 662 467 605 544 q 547 621 432 621 z"},"^":{"x_min":0,"x_max":427,"ha":427,"o":"m 313 677 l 521 328 l 476 328 l 305 614 l 134 328 l 88 328 l 299 677 z"},"0":{"x_min":0,"x_max":490,"ha":490,"o":"m 86 198 q 86 281 122 357 q 157 433 219 481 q 282 529 361 529 q 443 529 489 467 q 534 405 534 326 q 534 202 456 95 q 377 -12 254 -12 q 169 -12 127 49 q 86 110 86 198 z m 156 130 q 156 76 182 42 q 207 7 255 7 q 343 7 403 141 q 463 275 463 388 q 463 439 438 474 q 413 508 364 508 q 329 508 292 484 q 256 459 222 397 q 188 334 172 253 q 156 171 156 130 z"},"F":{"x_min":0,"x_max":656,"ha":656,"o":"m 295 321 q 228 98 228 68 q 228 54 241 38 q 254 23 287 17 q 303 14 306 12 q 309 11 309 5 q 309 -3 295 -3 q 285 -3 270 -2 q 174 5 107 5 l 43 3 q 28 3 28 14 q 28 22 54 23 q 115 28 131 72 q 148 116 205 316 q 263 515 263 568 q 263 589 243 602 q 223 614 199 614 q 182 614 182 623 q 182 634 198 634 l 518 629 q 582 629 626 627 q 666 625 676 625 q 687 625 710 627 q 711 608 711 599 q 711 443 696 443 q 686 443 683 461 q 678 500 658 536 q 639 573 623 586 q 606 600 574 605 q 542 610 452 610 q 409 610 387 604 q 357 561 304 343 q 328 343 348 343 q 438 343 468 362 q 497 381 527 440 q 533 452 538 452 q 546 452 546 441 q 546 437 544 431 q 534 405 480 184 q 476 167 468 167 q 459 167 459 176 l 460 179 q 465 204 465 226 q 465 322 330 322 q 318 322 295 321 z"},"`":{"x_min":0,"x_max":333,"ha":333,"o":"m 366 470 q 366 461 358 461 q 352 461 339 474 q 326 487 281 536 q 236 586 226 600 q 216 614 216 630 q 216 641 225 649 q 233 657 246 657 q 265 657 283 637 q 301 617 333 545 q 366 474 366 470 z"},"k":{"x_min":0,"x_max":417,"ha":417,"o":"m 202 246 q 197 226 169 139 l 124 -2 q 108 -4 82 -4 q 72 -4 66 -2 q 69 25 90 87 q 119 168 175 358 l 237 572 q 243 595 243 616 q 243 645 217 646 q 188 648 188 657 q 188 668 211 668 q 222 668 330 670 q 322 647 287 527 l 208 265 q 222 264 229 264 q 257 264 284 278 q 310 292 334 354 q 352 398 371 409 q 391 420 406 420 q 426 420 438 407 q 449 394 449 376 q 449 347 420 347 q 404 347 389 368 q 382 377 377 377 q 364 377 356 355 q 335 294 297 265 q 333 243 333 198 q 333 164 318 69 q 316 54 316 43 q 316 27 326 27 q 339 27 387 67 q 402 80 410 80 q 418 80 418 73 q 418 64 400 51 q 396 48 360 19 q 323 -9 296 -9 q 276 -9 267 4 q 257 18 257 35 q 257 62 271 156 q 274 182 274 199 q 274 216 265 228 q 256 240 247 242 q 238 244 202 246 z"},"u":{"x_min":0,"x_max":469,"ha":469,"o":"m 487 411 q 479 386 455 319 q 370 97 370 46 q 370 40 373 36 q 375 33 381 33 q 396 33 422 59 q 448 84 463 108 q 474 126 482 126 q 490 126 490 118 q 490 98 438 45 q 385 -9 345 -9 q 328 -9 320 3 q 311 15 311 39 q 311 87 332 156 q 225 -8 150 -8 q 132 -8 117 8 q 103 23 103 45 q 103 66 108 89 q 114 111 148 215 q 183 319 190 336 q 199 357 199 373 q 199 378 197 381 q 194 383 189 383 q 168 383 112 317 q 91 292 84 292 q 78 292 78 298 q 78 315 129 366 q 180 417 218 417 q 236 417 250 402 q 263 387 263 368 q 263 340 231 262 q 167 103 167 53 q 167 43 172 36 q 177 28 185 28 q 194 28 213 41 q 232 53 277 114 q 322 174 359 252 l 434 411 q 442 414 453 414 q 467 414 487 411 z"},"]":{"x_min":0,"x_max":448,"ha":448,"o":"m 273 -189 q 274 -185 318 13 l 404 387 l 450 583 q 297 543 254 543 q 214 543 186 568 q 157 593 157 624 q 157 639 166 652 q 175 665 183 665 q 192 665 192 657 q 192 653 189 649 q 182 638 182 629 q 182 618 191 611 q 201 603 241 603 q 329 603 398 609 q 445 613 470 613 q 480 613 480 605 l 480 601 q 478 591 430 390 l 341 5 l 320 -96 l 302 -180 q 294 -213 294 -214 q 293 -215 291 -215 q 265 -215 209 -211 q 146 -206 40 -206 q 12 -206 0 -217 q -12 -228 -12 -238 q -12 -242 -8 -253 l -7 -257 q -7 -266 -15 -266 q -25 -266 -30 -252 q -35 -238 -35 -227 q -35 -193 -3 -169 q 29 -145 59 -145 q 102 -145 273 -189 z"},"U":{"x_min":0,"x_max":729,"ha":729,"o":"m 240 559 q 240 578 231 592 q 222 605 212 609 q 202 614 169 618 q 158 620 158 627 q 158 637 170 637 q 184 637 208 635 q 269 628 322 628 q 358 628 396 633 q 417 635 429 635 q 448 635 448 623 q 448 617 444 615 q 441 614 422 611 q 392 608 377 599 q 362 590 345 560 q 329 529 309 444 q 290 359 273 275 q 257 190 257 150 q 257 98 298 58 q 338 18 413 18 q 495 18 547 68 q 599 118 642 276 q 686 434 686 504 q 686 555 659 583 q 633 611 589 614 q 577 615 577 624 q 577 633 598 633 q 624 633 661 631 q 715 628 733 628 q 759 628 800 631 q 805 632 809 632 q 821 632 821 622 q 821 614 800 612 q 767 607 749 590 q 731 573 724 548 q 717 523 706 446 q 692 350 647 205 q 602 61 531 24 q 459 -13 378 -13 q 279 -13 221 28 q 164 68 164 137 q 164 180 199 345 q 240 539 240 559 z"},"o":{"x_min":0,"x_max":417,"ha":417,"o":"m 291 417 q 356 417 393 367 q 430 317 430 249 q 430 154 363 72 q 296 -11 204 -11 q 135 -11 105 40 q 75 90 75 145 q 75 218 112 286 q 150 354 200 385 q 250 417 291 417 z m 300 396 q 273 396 240 365 q 207 333 175 250 q 143 168 143 96 q 143 61 159 35 q 175 10 203 10 q 233 10 269 46 q 305 83 335 160 q 366 236 366 305 q 366 351 349 374 q 333 396 300 396 z"},"N":{"x_min":0,"x_max":771,"ha":771,"o":"m 351 626 q 544 270 620 154 q 735 482 735 537 q 735 559 723 578 q 711 596 698 603 q 684 609 662 612 q 637 614 637 623 q 637 626 640 629 q 643 631 671 632 q 699 632 755 633 q 812 635 873 635 q 887 635 887 624 q 887 617 877 616 q 835 611 812 593 q 788 574 771 537 q 754 499 697 312 q 640 124 623 58 q 611 11 608 4 q 604 -2 601 -2 q 593 -2 589 13 q 583 32 550 86 l 410 330 q 336 459 317 487 q 270 353 241 247 l 214 150 q 203 108 203 89 q 203 62 227 44 q 251 26 288 21 q 308 18 308 11 q 308 2 298 2 l 249 2 l 179 2 l 65 2 l 43 2 q 31 2 31 11 q 31 18 54 20 q 114 24 142 52 q 169 80 211 222 q 253 365 276 469 q 287 516 291 528 q 251 581 234 594 q 218 607 175 614 q 143 619 143 626 q 143 636 170 636 q 181 636 229 632 q 240 631 286 630 q 323 629 351 626 z"},"+":{"x_min":0,"x_max":667,"ha":667,"o":"m 129 279 l 370 279 l 370 520 l 413 520 l 413 279 l 654 279 l 654 236 l 413 236 l 413 -3 l 370 -3 l 370 236 l 129 236 z"},"G":{"x_min":0,"x_max":729,"ha":729,"o":"m 605 36 q 475 -7 387 -7 q 267 -7 186 67 q 105 141 105 271 q 105 363 152 450 q 199 537 287 594 q 375 651 489 651 q 582 651 688 595 q 699 588 706 588 q 715 588 727 602 q 737 613 743 613 q 751 613 751 604 q 751 602 731 523 l 710 436 q 708 425 703 425 q 696 425 693 431 q 690 437 687 463 q 680 527 629 578 q 579 630 499 630 q 422 630 354 573 q 285 515 248 420 q 212 324 212 251 q 212 155 267 84 q 322 13 397 13 q 438 13 475 32 q 511 51 530 99 q 548 146 548 205 q 548 243 530 257 q 512 271 468 277 q 457 279 457 287 q 457 295 468 295 q 480 295 505 293 q 525 291 568 291 l 700 290 q 731 290 742 287 q 753 285 753 278 q 753 270 731 269 q 681 265 666 235 q 651 206 605 36 z"},"q":{"x_min":0,"x_max":438,"ha":438,"o":"m 473 415 l 390 109 l 324 -137 q 312 -178 312 -204 q 312 -229 321 -236 q 330 -244 354 -246 q 374 -248 374 -256 q 374 -268 359 -268 q 349 -268 324 -265 q 305 -263 271 -263 q 232 -263 210 -265 q 177 -267 162 -267 q 149 -267 149 -256 q 149 -251 156 -249 q 162 -247 190 -244 q 222 -240 233 -216 q 245 -191 309 50 q 251 -13 193 -13 q 139 -13 106 25 q 74 64 74 122 q 74 225 144 321 q 214 416 285 416 q 336 416 371 354 q 383 333 391 332 l 425 415 z m 144 112 q 144 69 165 42 q 186 15 210 15 q 244 15 281 50 q 318 84 340 167 q 362 250 362 297 q 362 336 340 365 q 317 394 288 394 q 255 394 220 351 q 185 308 165 237 q 144 166 144 112 z"},"d":{"x_min":0,"x_max":479,"ha":479,"o":"m 565 657 q 552 611 498 455 q 378 108 378 55 q 378 46 382 42 q 386 37 394 37 q 425 37 484 113 q 492 124 497 124 q 500 124 503 120 q 507 116 507 113 q 507 108 479 75 q 452 41 416 17 q 380 -7 357 -7 q 341 -7 328 10 q 315 28 315 55 q 315 69 318 94 q 232 -9 159 -9 q 116 -9 94 15 q 72 39 72 86 q 72 190 161 293 q 249 396 344 396 q 360 396 377 393 q 394 391 411 385 l 474 567 q 484 595 484 614 q 484 628 468 635 q 453 642 416 647 q 405 649 405 657 q 405 666 414 666 q 423 666 438 664 q 487 659 565 657 z m 335 376 q 278 376 210 283 q 143 190 143 102 q 143 70 156 45 q 168 20 188 20 q 216 20 264 66 q 312 112 348 192 q 384 272 384 328 q 384 348 371 362 q 359 376 335 376 z"},"1":{"x_min":0,"x_max":490,"ha":490,"o":"m 280 60 q 280 38 299 28 q 317 19 332 19 q 353 19 353 10 q 353 0 338 0 q 326 0 289 3 q 266 4 217 4 q 190 4 177 3 q 146 1 136 1 q 121 1 121 10 q 121 19 139 20 q 169 21 187 37 q 205 53 212 77 q 220 101 261 235 l 312 399 q 321 424 321 444 q 321 460 305 472 q 289 484 258 484 q 240 484 240 494 q 240 504 256 504 q 366 505 400 528 q 409 534 414 534 q 420 534 420 525 q 420 522 383 400 l 292 109 q 280 71 280 60 z"},"5":{"x_min":0,"x_max":490,"ha":490,"o":"m 290 529 q 351 514 396 514 q 471 514 511 560 q 528 579 533 579 q 542 579 542 569 q 542 558 516 523 q 490 489 452 474 q 415 458 349 458 q 310 458 285 463 q 243 368 223 313 q 250 332 277 341 q 303 350 327 350 q 391 350 431 308 q 472 267 472 203 q 472 126 408 58 q 344 -10 235 -10 q 156 -10 114 29 q 72 68 72 110 q 72 155 115 155 q 151 155 151 120 q 151 111 145 95 q 139 80 139 70 q 139 50 160 31 q 181 11 219 11 q 296 11 348 92 q 401 173 401 246 q 401 285 376 307 q 351 330 319 330 q 299 330 276 319 q 253 309 241 296 q 228 284 209 257 q 190 228 182 228 q 172 228 172 238 q 172 242 175 248 z"}}}
